<svg width="72" height="72" viewBox="0 0 72 72" fill="none" xmlns="http://www.w3.org/2000/svg">
<path d="M51 6H21C12.7157 6 6 12.7157 6 21V51C6 59.2843 12.7157 66 21 66H51C59.2843 66 66 59.2843 66 51V21C66 12.7157 59.2843 6 51 6Z" stroke="white" stroke-width="4" stroke-linecap="round" stroke-linejoin="round"/>
<path d="M48.0001 34.11C48.3703 36.6068 47.9439 39.1567 46.7814 41.3971C45.6189 43.6375 43.7795 45.4543 41.525 46.5891C39.2704 47.7239 36.7154 48.1188 34.2235 47.7178C31.7315 47.3169 29.4294 46.1403 27.6446 44.3555C25.8598 42.5708 24.6833 40.2687 24.2823 37.7767C23.8813 35.2847 24.2763 32.7297 25.4111 30.4752C26.5459 28.2206 28.3627 26.3813 30.6031 25.2188C32.8434 24.0563 35.3934 23.6298 37.8901 24.0001C40.4369 24.3777 42.7947 25.5644 44.6152 27.385C46.4357 29.2055 47.6224 31.5633 48.0001 34.11Z" stroke="white" stroke-width="4" stroke-linecap="round" stroke-linejoin="round"/>
<path d="M52.5 19.5H52.53" stroke="white" stroke-width="4" stroke-linecap="round" stroke-linejoin="round"/>
</svg>
