<svg width="80" height="60" viewBox="0 0 80 60" fill="none" xmlns="http://www.w3.org/2000/svg">
<g clip-path="url(#clip0_124_209)">
<path d="M12.3933 60C8.61589 60 5.6166 59.038 3.36713 57.0997C1.11766 55.1757 0 52.5584 0 49.2478C0 45.3572 1.68356 42.3155 5.0507 40.0943C8.41783 37.8731 13.1856 36.7696 19.3681 36.7696H29.6817V38.2551H22.1976C19.9906 38.2551 18.2221 38.7503 16.8922 39.7548C15.5624 40.7593 14.6003 41.9901 14.0061 43.4756C13.4119 44.947 13.1148 46.4183 13.1148 47.8755C13.1148 49.3327 13.2846 50.5211 13.6383 51.6388C13.992 52.7564 14.5437 53.6619 15.2936 54.341C16.0434 55.02 17.0054 55.3596 18.1655 55.3596C19.3822 55.3596 20.5706 54.9352 21.7166 54.0722C22.8625 53.2092 23.8104 51.8934 24.5461 50.1108C25.2818 48.3282 25.6496 46.0788 25.6496 43.3483H26.7814C26.7814 46.7154 26.1872 49.644 25.0271 52.1622C23.8529 54.6664 22.1976 56.6046 20.0472 57.9628C17.8967 59.3209 15.3643 60.0141 12.4357 60.0141L12.3933 60ZM35.4115 60C33.5298 60 31.8463 59.7312 30.3891 59.1936C28.9319 58.656 27.7576 57.8213 26.9087 56.6753C26.0599 55.5294 25.6213 54.058 25.6213 52.2613V32.6385C25.6213 30.5447 25.4233 28.5499 25.013 26.64C24.6027 24.73 23.8246 23.1596 22.6645 21.9146C21.5044 20.6838 19.7642 20.0613 17.444 20.0613C16.2273 20.0613 14.9116 20.2028 13.4827 20.4716C12.0679 20.7545 10.7239 21.1931 9.46475 21.8015C8.20561 22.4098 7.17284 23.2021 6.38057 24.1783C5.58831 25.1545 5.17802 26.3287 5.17802 27.7293H3.12662C3.12662 25.9043 3.81985 24.4329 5.19217 23.3153C6.56449 22.1976 8.16317 21.6458 9.95992 21.6458C11.7567 21.6458 13.511 22.1552 14.9399 23.1738C16.3688 24.1924 17.0903 25.6496 17.0903 27.5737C17.0903 29.6392 16.3688 31.1955 14.9116 32.2565C13.4685 33.3176 11.8133 33.8411 9.95992 33.8411C7.97925 33.8411 6.33813 33.3035 5.0224 32.2141C3.70667 31.1247 3.04174 29.6392 3.04174 27.7576C3.04174 26.1306 3.52275 24.73 4.47064 23.5558C5.43268 22.3815 6.70597 21.4195 8.30465 20.6555C9.90332 19.8915 11.6718 19.3398 13.61 18.9861C15.5482 18.6324 17.5289 18.4485 19.5237 18.4485C23.9378 18.4485 27.4747 19.071 30.1344 20.3018C32.8083 21.5327 34.7324 23.2304 35.9208 25.3667C37.1092 27.5171 37.7034 29.9505 37.7034 32.681V53.5628C37.7034 54.5532 37.9014 55.3737 38.2976 56.0387C38.6937 56.7036 39.4152 57.0432 40.4905 57.0432C41.212 57.0432 42.075 56.7602 43.0795 56.1943C44.0839 55.6284 44.8762 54.7654 45.4563 53.6053L46.5032 54.6947C45.6543 56.3782 44.2679 57.6939 42.3013 58.6277C40.3348 59.5614 38.0429 60.0424 35.4115 60.0424V60Z" fill="white"/>
<path d="M29.6676 58.6701V57.1139L34.5626 58.4438V1.55624H28.6489V0H46.7437C46.7437 0 47.4511 54.0014 46.7437 55.0766C45.9986 56.199 44.9847 57.1328 43.702 57.8779C41.4384 59.1936 41.3393 59.038 39.7831 59.4907C37.3497 60.1981 29.6676 58.6701 29.6676 58.6701ZM56.5339 59.1229V57.4251H61.1035V32.4122C61.1035 29.9788 61.0045 27.9981 60.7923 26.4985C60.5801 24.9988 60.1839 23.8812 59.5756 23.1879C58.9672 22.4947 58.0618 22.141 56.8734 22.141C55.2464 22.141 53.8034 22.6786 52.5442 23.7255C51.2851 24.7866 50.224 26.1872 49.3752 27.9274C48.5263 29.6675 47.8614 31.5633 47.4228 33.6006C46.9842 35.6378 46.7437 37.6751 46.7437 39.6699L45.4421 39.7548C45.4421 37.6892 45.6826 35.4256 46.1637 32.9498C46.6447 30.4739 47.4511 28.1113 48.597 25.876C49.743 23.6407 51.3134 21.8015 53.3223 20.3726C55.3313 18.9436 57.8496 18.2221 60.8913 18.2221C64.1736 18.2221 66.6918 18.788 68.4603 19.9198C70.2287 21.0516 71.4596 22.6079 72.1528 24.5744C72.846 26.5409 73.1997 28.7904 73.1997 31.3228V57.4251H79.1134V59.1229H56.5339V59.1229Z" fill="white"/>
</g>
<defs>
<clipPath id="clip0_124_209">
<rect width="79.1134" height="60" fill="white"/>
</clipPath>
</defs>
</svg>
